<?xml version="1.0" standalone="no"?>
<!DOCTYPE svg PUBLIC "-//W3C//DTD SVG 20010904//EN"
 "http://www.w3.org/TR/2001/REC-SVG-20010904/DTD/svg10.dtd">
<svg version="1.0" xmlns="http://www.w3.org/2000/svg"
 width="666.000000pt" height="666.000000pt" viewBox="0 0 666.000000 666.000000"
 preserveAspectRatio="xMidYMid meet">
<metadata>
Created by potrace 1.14, written by Peter Selinger 2001-2017
</metadata>
<g transform="translate(0.000000,666.000000) scale(0.100000,-0.100000)"
fill="#000000" stroke="none">
<path d="M3406 4953 c-2 -2 -68 -6 -147 -10 -119 -5 -153 -9 -194 -28 -27 -12
-72 -31 -99 -41 -72 -26 -160 -75 -198 -109 -18 -17 -51 -43 -73 -59 -65 -48
-105 -89 -128 -131 -12 -22 -21 -44 -22 -48 0 -5 -7 -14 -15 -20 -20 -16 -53
-67 -47 -74 3 -2 -1 -20 -9 -39 -8 -19 -14 -36 -13 -39 0 -6 -18 -102 -31
-160 -5 -22 -6 -74 -3 -115 3 -41 7 -129 8 -195 2 -66 5 -131 7 -145 2 -20 -2
-26 -22 -28 -40 -6 -58 -30 -65 -85 -3 -29 -8 -68 -11 -88 -2 -20 2 -56 10
-80 8 -24 22 -73 31 -109 49 -195 99 -260 203 -260 39 0 42 -2 42 -27 0 -16 6
-60 14 -100 7 -40 11 -75 8 -78 -3 -3 -1 -5 5 -5 6 0 13 -15 16 -32 3 -18 22
-69 43 -113 21 -44 39 -84 40 -90 1 -5 9 -37 18 -70 13 -52 13 -61 1 -68 -8
-4 -36 -38 -62 -75 -26 -37 -52 -72 -58 -78 -72 -78 -131 -137 -155 -154 -17
-12 -90 -41 -162 -66 -112 -38 -385 -143 -560 -215 -25 -10 -79 -31 -120 -45
-40 -14 -100 -39 -133 -54 -33 -16 -96 -40 -140 -55 -105 -36 -115 -41 -151
-81 -26 -30 -78 -141 -99 -211 l-6 -23 2226 0 2226 0 -16 30 c-8 16 -15 36
-15 44 0 35 -93 114 -123 103 -7 -2 -37 8 -67 24 -30 15 -77 37 -105 47 -27
11 -84 36 -125 55 -41 20 -106 50 -145 67 -38 18 -106 50 -151 71 -44 21 -85
39 -91 39 -5 0 -25 7 -44 16 -78 38 -121 56 -254 109 -183 74 -241 120 -364
289 -35 49 -72 95 -81 103 -15 13 -16 34 -14 171 2 87 6 173 9 192 3 19 7 51
9 70 2 19 8 56 15 82 6 25 14 70 17 100 4 29 8 60 9 68 1 10 17 17 46 20 76 9
107 36 129 108 11 35 22 74 24 86 13 64 37 175 44 201 5 17 8 63 6 104 -4 93
-23 126 -77 126 -20 1 -39 4 -42 7 -3 3 -1 36 5 74 15 90 12 311 -5 364 -3 9
-1 59 5 110 10 88 9 94 -10 115 -11 12 -20 26 -20 32 0 5 -9 18 -20 28 -11 10
-20 26 -20 37 0 10 -34 51 -77 91 -93 88 -130 125 -165 164 -31 34 -141 92
-208 108 -8 3 -35 12 -60 21 -41 14 -186 35 -194 27z"/>
</g>
</svg>
